<svg xmlns="http://www.w3.org/2000/svg" xmlns:xlink="http://www.w3.org/1999/xlink" width="117" height="117" viewBox="0 0 117 117">
  <metadata><?xpacket begin="﻿" id="W5M0MpCehiHzreSzNTczkc9d"?>
<x:xmpmeta xmlns:x="adobe:ns:meta/" x:xmptk="Adobe XMP Core 5.6-c138 79.159824, 2016/09/14-01:09:01        ">
   <rdf:RDF xmlns:rdf="http://www.w3.org/1999/02/22-rdf-syntax-ns#">
      <rdf:Description rdf:about=""/>
   </rdf:RDF>
</x:xmpmeta>
                                                                                                    
                                                                                                    
                                                                                                    
                                                                                                    
                                                                                                    
                                                                                                    
                                                                                                    
                                                                                                    
                                                                                                    
                                                                                                    
                                                                                                    
                                                                                                    
                                                                                                    
                                                                                                    
                                                                                                    
                                                                                                    
                                                                                                    
                                                                                                    
                                                                                                    
                                                                                                    
                           
<?xpacket end="w"?></metadata>
<defs>
    <style>
      .cls-1 {
        fill: #3c3c3c;
      }

      .cls-2 {
        fill-rule: evenodd;
        filter: url(#filter);
      }
    </style>
    <filter id="filter" x="22" y="22" width="75" height="72" filterUnits="userSpaceOnUse">
      <feFlood result="flood" flood-color="#fff"/>
      <feComposite result="composite" operator="in" in2="SourceGraphic"/>
      <feBlend result="blend" in2="SourceGraphic"/>
    </filter>
  </defs>
  <circle id="Ellipse_1_copy" data-name="Ellipse 1 copy" class="cls-1" cx="58.5" cy="58.5" r="58.5"/>
  <path class="cls-2" d="M83.534,75.751a5.283,5.283,0,1,0,5.482,5.28A5.39,5.39,0,0,0,83.534,75.751Zm0,7.68a2.4,2.4,0,1,1,2.492-2.4A2.45,2.45,0,0,1,83.534,83.431ZM35.692,29.673a5.284,5.284,0,1,0,5.482,5.28A5.39,5.39,0,0,0,35.692,29.673Zm0,7.68a2.4,2.4,0,1,1,2.492-2.4A2.45,2.45,0,0,1,35.692,37.353ZM83.534,68.072a13.774,13.774,0,0,0-4.815.854L67.366,57.992,78.719,47.057a13.8,13.8,0,0,0,4.815.855h0a13.633,13.633,0,0,0,9.514-3.8,12.64,12.64,0,0,0,3.941-9.164,12.447,12.447,0,0,0-1.313-5.588,1.491,1.491,0,0,0-1.1-.8,1.535,1.535,0,0,0-1.309.4l-6.918,6.663L82.83,32.237l6.918-6.663a1.409,1.409,0,0,0,.417-1.261,1.446,1.446,0,0,0-.828-1.056,13.763,13.763,0,0,0-5.8-1.264A13.229,13.229,0,0,0,70.079,34.953a12.434,12.434,0,0,0,.888,4.637L59.613,50.525,48.26,39.59a12.426,12.426,0,0,0,.888-4.637A13.229,13.229,0,0,0,35.692,21.993,13.229,13.229,0,0,0,22.236,34.952,13.229,13.229,0,0,0,35.692,47.912a13.788,13.788,0,0,0,4.815-.855L51.86,57.992,40.509,68.925a13.759,13.759,0,0,0-5.058-.95A13.23,13.23,0,0,0,22,80.935a12.454,12.454,0,0,0,1.313,5.588,1.491,1.491,0,0,0,1.1.8,1.534,1.534,0,0,0,1.31-.4l6.918-6.663,3.524,3.394-6.918,6.663a1.407,1.407,0,0,0-.416,1.261,1.448,1.448,0,0,0,.828,1.056,13.758,13.758,0,0,0,5.8,1.264A13.229,13.229,0,0,0,48.907,80.936a12.423,12.423,0,0,0-.8-4.4l11.5-11.08L70.967,76.393a12.44,12.44,0,0,0-.888,4.638A13.465,13.465,0,1,0,83.534,68.072ZM41.905,44.331a1.54,1.54,0,0,0-1.7-.281,10.693,10.693,0,0,1-4.511.982A10.29,10.29,0,0,1,25.226,34.952a10.473,10.473,0,0,1,20.931,0,9.674,9.674,0,0,1-1.02,4.344,1.4,1.4,0,0,0,.292,1.64L57.5,52.562l-3.524,3.394Zm3.389,30.846a1.4,1.4,0,0,0-.3,1.612,9.691,9.691,0,0,1,.927,4.147A10.29,10.29,0,0,1,35.451,91.015a10.9,10.9,0,0,1-2.431-.272l6.307-6.074a1.4,1.4,0,0,0,0-2.037L33.689,77.2a1.536,1.536,0,0,0-2.114,0l-6.307,6.074a9.73,9.73,0,0,1-.283-2.341A10.291,10.291,0,0,1,35.451,70.855a10.676,10.676,0,0,1,4.709,1.079,1.539,1.539,0,0,0,1.731-.267L73.8,40.937a1.4,1.4,0,0,0,.291-1.639,9.682,9.682,0,0,1-1.02-4.345,10.29,10.29,0,0,1,10.465-10.08,10.857,10.857,0,0,1,2.431.272l-6.307,6.074a1.4,1.4,0,0,0,0,2.036l5.638,5.43a1.535,1.535,0,0,0,2.114,0l6.307-6.074a9.823,9.823,0,0,1-2.783,9.468,10.786,10.786,0,0,1-11.911,1.97,1.538,1.538,0,0,0-1.7.281Zm38.24,15.934a10.289,10.289,0,0,1-10.465-10.08,9.678,9.678,0,0,1,1.02-4.344,1.4,1.4,0,0,0-.291-1.64L61.727,63.422l3.524-3.394,12.07,11.625a1.539,1.539,0,0,0,1.7.281,10.7,10.7,0,0,1,4.51-.982A10.087,10.087,0,1,1,83.534,91.111Z"/>
</svg>
