<?xml version="1.0" encoding="utf-8"?>
<!-- Generator: Adobe Illustrator 21.1.0, SVG Export Plug-In . SVG Version: 6.00 Build 0)  -->
<svg version="1.1" id="Layer_1" xmlns="http://www.w3.org/2000/svg" xmlns:xlink="http://www.w3.org/1999/xlink" x="0px" y="0px"
	 viewBox="0 0 113.3 98.1" style="enable-background:new 0 0 113.3 98.1;" xml:space="preserve">
<style type="text/css">
	.st0{fill:#181716;}
	.st1{fill:#FFFFFF;}
	.st2{fill:#FFFFFF;stroke:#F7931E;stroke-width:2;stroke-miterlimit:10;}
	.st3{fill:#E5007D;}
</style>
<path class="st1" d="M76.1,42.9c0,0,0-0.1,0-0.1c0-0.1,0-0.1,0-0.2c0-0.1-0.1-0.1-0.1-0.2c0,0,0-0.1-0.1-0.1c0,0,0,0,0,0
	c0,0,0,0,0,0l-3.6-3.6c0,0,0,0,0,0c0,0,0,0,0,0c0,0-0.1,0-0.1-0.1c-0.1,0-0.1-0.1-0.2-0.1c-0.1,0-0.1,0-0.2,0c0,0-0.1,0-0.1,0h-7.3
	v-3.7c0-0.6-0.4-1-1-1H61V32h2.8h4.5c0.3,0,0.5-0.1,0.7-0.3l1.9-1.9c0.2-0.2,0.3-0.4,0.3-0.7v-4.1c0-0.1,0-0.3-0.1-0.4
	c0,0,0-0.1-0.1-0.1c-0.1-0.1-0.1-0.2-0.2-0.2c0,0,0,0,0,0l-3.9-3.2C66.7,21,66.5,21,66.2,21h-3.7H51.4h-3.7c-0.2,0-0.4,0.1-0.6,0.2
	l-3.9,3.2c0,0,0,0,0,0c-0.1,0.1-0.1,0.1-0.2,0.2c0,0-0.1,0.1-0.1,0.1c-0.1,0.1-0.1,0.3-0.1,0.4v4c0,0.3,0.1,0.5,0.3,0.7l1.9,1.9
	c0.2,0.2,0.4,0.3,0.7,0.3h4.5H53v1.6h-2.2c-0.6,0-1,0.4-1,1v3.7h-7.9c0,0-0.1,0-0.1,0c-0.1,0-0.1,0-0.2,0c-0.1,0-0.1,0.1-0.2,0.1
	c0,0-0.1,0-0.1,0.1c0,0,0,0,0,0c0,0,0,0,0,0l-3.6,3.6c0,0,0,0,0,0c0,0,0,0,0,0c0,0,0,0.1-0.1,0.1c0,0.1-0.1,0.1-0.1,0.2
	c0,0.1,0,0.1,0,0.2c0,0,0,0.1,0,0.1v32.3c0,0.5,0.2,0.9,0.5,1.2c0,0,0,0,0,0c0,0,0,0,0,0c0.3,0.4,0.8,0.6,1.4,0.6h35
	c0.5,0,1-0.2,1.4-0.6c0,0,0,0,0,0c0,0,0,0,0,0c0.3-0.3,0.5-0.8,0.5-1.3V42.9z M39.2,45l5.7,4.5v18.4c0,0,0,0,0,0.1l-5.7,5.6V45z
	 M41.8,40.8l4.9,6.1l-0.9,0.9l-6.1-4.9L41.8,40.8z M50.8,40.3h12.4h6.2l-4.5,5.7H48.5L44,40.3H50.8z M73.6,42.8l-6.1,4.9l-0.9-0.9
	l4.9-6.1L73.6,42.8z M46.9,67.5v-18l1.5-1.5h16.5l1.5,1.5v18H46.9z M46.3,69.5c0,0,0.1,0,0.1,0h20.5c0,0,0.1,0,0.1,0l5.7,5.7H40.6
	L46.3,69.5z M68.4,68C68.4,68,68.4,68,68.4,68l0-18.5l5.7-4.5v28.7L68.4,68z M67.9,30h-2.3l0.2-0.4c0.1-0.2,0.1-0.3,0.1-0.5v-3.1
	h3.2v2.6L67.9,30z M67.3,24.1h-1.9L64.6,23h1.3L67.3,24.1z M62.1,23l0.9,1.2H51l0.9-1.2H62.1z M48.1,23h1.3l-0.9,1.2h-1.9L48.1,23z
	 M44.8,28.7v-2.6H48v3c0,0.2,0,0.4,0.1,0.5l0.2,0.4h-2.3L44.8,28.7z M50,28.9v-2.8h13.9v2.8L63.2,30H60h-6h-3.3L50,28.9z M55,32h4
	v1.6h-4V32z M51.8,35.6H54h6h2.2v2.7H51.8V35.6z"/>
</svg>
