<?xml version="1.0" encoding="utf-8"?>
<!-- Generator: Adobe Illustrator 21.1.0, SVG Export Plug-In . SVG Version: 6.00 Build 0)  -->
<svg version="1.1" id="Layer_1" xmlns="http://www.w3.org/2000/svg" xmlns:xlink="http://www.w3.org/1999/xlink" x="0px" y="0px"
	 viewBox="0 0 113.3 98.1" style="enable-background:new 0 0 113.3 98.1;" xml:space="preserve">
<style type="text/css">
	.st0{fill:#181716;}
	.st1{fill:#FFFFFF;}
	.st2{fill:#FFFFFF;stroke:#F7931E;stroke-width:2;stroke-miterlimit:10;}
	.st3{fill:#E5007D;}
</style>
<g>
	<path class="st1" d="M89.5,53.4c-2.2-1-4.5-1.9-6.8-2.7c-3.9-1.6-7.9-3.1-11.8-5c0-0.3,0-0.6,0-1c0-0.6-0.4-1-1-1c-0.6,0-1,0.4-1,1
		c0,0,0,0,0,0c-1.7-0.9-3.3-1.8-4.9-2.9c0.1-0.1,0.1-0.1,0.2-0.2c0.4-0.4,0.4-1-0.1-1.4c-0.4-0.4-1-0.4-1.4,0.1
		c-0.1,0.1-0.2,0.3-0.4,0.4c0,0-0.1,0-0.1-0.1L57.9,37c0.1-0.2,0.2-0.4,0.3-0.5c0.3-0.5,0.1-1.1-0.4-1.4c-0.5-0.3-1.1-0.1-1.4,0.4
		c-0.1,0.1-0.1,0.2-0.2,0.3l-2.7-2.1c-0.4-0.3-0.8-0.7-1.2-1.2c-1.2-1.4-3-3.3-5.8-2.4c-1.7,0.5-3,2.3-3,4.2v1.1l-8,5.7
		c-0.9,0.5-2,0.6-3.2,0.2c-1.5-0.5-2.6-1.7-3.2-3.3c-0.5-1.5-1.9-2.5-3.4-2.5c-1.4-0.1-2.7,0.7-3.4,2c0,0.1-0.1,0.2-0.1,0.2
		l-0.9,4.4l-0.1,0.8c0,0.1-0.1,0.1-0.1,0.2c-0.1,0.3-0.1,0.6,0,0.8l-0.1,0.7c-0.5,3-0.6,6-0.4,8.9l0,0.7c-0.6,0.3-1.3,0.9-1.4,1.6
		c-0.1,0.6,0.1,1.3,0.7,1.7c0,0,0,0,0.1,0.1c-0.3,0.3-0.6,0.7-0.6,1.5c0,0.5,0.3,0.9,0.6,1.2c-0.5,0.3-0.7,0.8-0.8,1
		c-0.3,1,0.3,2.2,0.9,2.9c0.7,0.8,2.8,1.8,3.8,2.2c2.6,1.3,6.8,2.5,13,1.7c2.5-0.3,4.6-0.9,6.5-1.6c2.9-0.9,5.3-1.7,8.8-1.2
		c1.8,0.2,4.5,0.8,7.3,1.4c4.4,0.9,8.8,1.8,11.7,1.9c0.4,0,0.8,0,1.2,0c6.6,0,17.4-1.6,21.1-7.7c0.1-0.2,0.1-0.3,0.1-0.5
		C93.9,57.2,92.2,54.6,89.5,53.4z M62.8,58.5c-0.2,0.3-0.5,0.7-0.7,1.1c-0.6-0.6-1.1-1.3-1.7-2c-1.1-1.4-2.2-3-2.3-4.8
		c-0.1-2.4,1.2-4.9,2.5-6.7c1.7,1.2,3.5,2.4,5.1,3.7c0.6,0.5,1.2,1.1,1.9,1.6c0.9,0.8,1.8,1.6,2.8,2.3c0.5,1.4,1.1,2.7,1.8,3.7
		c1.1,1.6,2.6,2.7,4,3.6c0.5,0.3,1,0.6,1.5,0.9c-2-0.2-3.8-0.7-5.4-1.7c-0.6-0.4-1.2-1-1.9-1.6c-1.2-1.2-2.4-2.5-4-2.7
		C64.6,55.7,63.6,57.2,62.8,58.5z M82.7,61.7c-0.3,0-0.6,0-0.9-0.1c-0.8-0.2-1.5-0.6-2.3-0.9c-0.7-0.4-1.5-0.8-2.2-1.3
		c-1.2-0.8-2.5-1.7-3.4-3c-0.2-0.3-0.4-0.7-0.6-1c1.9,0.6,4.6,0.9,7.6,0.9c2.8,0,5.8-0.2,8.8-0.4c0.8,0.6,1.5,1.4,1.9,2.3
		c0,0,0,0,0,0C90,59.9,85.9,61.1,82.7,61.7z M85.7,54c-5.1,0.3-10.4,0.3-12.7-0.9c-0.3-0.2-0.7-0.4-1-0.6c-0.5-1.5-0.8-3-0.9-4.6
		c3.6,1.7,7.3,3.2,10.9,4.6C83.3,53,84.5,53.5,85.7,54z M69.1,46.9c0.1,1.1,0.2,2.3,0.4,3.5c-0.2-0.2-0.4-0.3-0.5-0.5
		c-0.6-0.6-1.3-1.2-2-1.7c-1.6-1.3-3.4-2.6-5.1-3.7c0.1-0.2,0.2-0.3,0.3-0.5c0.2-0.3,0.4-0.5,0.6-0.8C64.9,44.6,66.9,45.8,69.1,46.9
		z M61.2,42.1C61.2,42.1,61.2,42.1,61.2,42.1c-0.2,0.2-0.4,0.5-0.5,0.7c-0.1,0.2-0.3,0.4-0.4,0.5c-1.5-1-3.1-2.1-4.5-3.2
		c0.4-0.4,0.7-0.9,1.1-1.5L61.2,42.1z M47.2,31.9c1.5-0.5,2.4,0.4,3.7,1.8c0.5,0.5,0.9,1,1.5,1.5l2.9,2.3c-0.4,0.6-0.8,1.2-1.1,1.5
		c-0.3-0.2-0.5-0.4-0.8-0.6c-2.3-2-4.4-3.3-7.7-3.9v-0.3C45.7,33.1,46.3,32.2,47.2,31.9z M24.4,38c0.4-0.7,1.1-0.7,1.4-0.7
		c0.6,0,1.3,0.4,1.7,1.2c0.8,2.1,2.4,3.8,4.4,4.5c1.7,0.6,3.5,0.5,4.9-0.4l8.4-6c0.1,0,0.1-0.1,0.2-0.2c2.8,0.5,4.5,1.6,6.6,3.4
		c2.2,1.9,4.6,3.6,7,5.2c-1.5,2-3,5-2.8,7.9c0.1,2.3,1.4,4.3,2.7,6c0.2,0.3,0.5,0.6,0.8,0.9c-2.1-0.4-4.4-0.7-6.8-1
		c-2.9-0.3-5.8,0.1-8.5,0.5l-0.8,0.1c-3.9,0.5-5.5,0.7-8.3-2.2c0,0,0-0.1,0-0.1c-2-6-6.2-11.1-11.7-14.2l0.1-0.6L24.4,38z
		 M22.9,53.2c-0.2-2.7-0.1-5.5,0.3-8.2c3.9,2.4,7.1,5.9,9.1,10c-2.8-1.3-6.6-1.9-9.4-1.6L22.9,53.2z M25.2,64.4
		C25.2,64.4,25.2,64.4,25.2,64.4c-0.1-0.1-0.1-0.1-0.2-0.1c-0.3-0.2-0.6-0.3-0.9-0.5c-0.4-0.2-1.3-0.9-1.3-2l0-1.2c0,0,0,0,0-0.1
		c0.1-0.2,0-0.4,0-0.6v0c1.1-0.5,2.3-0.6,3.4-0.3c1.6,0.4,2.9,1.8,4.2,3.3c0.8,0.8,1.5,1.7,2.4,2.5c0.4,0.3,0.8,0.5,1.2,0.7
		C29.8,66.1,27,65.2,25.2,64.4z M71.5,66.3c-2.7-0.1-7.3-1-11.3-1.9c-2.9-0.6-5.6-1.1-7.4-1.4c-0.8-0.1-1.5-0.1-2.2-0.1
		c-2.8,0-5.1,0.7-7.4,1.5c-0.6,0.2-1.2,0.4-1.8,0.6c-1.6,0.2-5.3,0.4-7.2-1.2c-0.8-0.6-1.5-1.4-2.2-2.2c-1.4-1.6-2.9-3.3-5.1-3.9
		c-1.2-0.3-2.6-0.3-3.9,0.1l0-2.3c3.5-0.5,8.9,0.9,10.6,2.8c3.5,3.8,5.8,3.6,10.3,3l0.8-0.1c2.8-0.4,5.4-0.7,8.1-0.5
		c3,0.3,5.8,0.7,8.4,1.3c1.7,0.4,2.7-1.2,3.6-2.5c0.4-0.7,1.1-1.7,1.5-1.7C67,58,68,59,68.9,60c0.7,0.7,1.5,1.5,2.3,1.9
		c3.2,2,7.1,2.5,11.7,1.7c1.7-0.3,5.2-1,7.8-2.4C86.7,65,78.4,66.5,71.5,66.3z"/>
	<path class="st1" d="M36.5,47.8l7.4,1.8L42.2,57c-0.1,0.4,0.1,0.8,0.4,1c0.2,0.1,0.4,0.2,0.6,0.2c0.2,0,0.4,0,0.5-0.1l5.5-3.4
		c0.2-0.1,0.4-0.4,0.5-0.6l2-8.4c0.1-0.5-0.2-1.1-0.7-1.2l-8.4-2c-0.3-0.1-0.5,0-0.8,0.1l-5.5,3.4c-0.3,0.2-0.5,0.6-0.5,1
		C35.8,47.3,36.1,47.7,36.5,47.8z M42.5,44.5l7,1.7l-1.7,7l-3.1,1.9l1.5-6c0.1-0.3,0-0.5-0.1-0.8c-0.1-0.2-0.4-0.4-0.6-0.5l-6-1.5
		L42.5,44.5z"/>
</g>
</svg>
