<?xml version="1.0" encoding="utf-8"?>
<!-- Generator: Adobe Illustrator 21.1.0, SVG Export Plug-In . SVG Version: 6.00 Build 0)  -->
<svg version="1.1" id="Layer_1" xmlns="http://www.w3.org/2000/svg" xmlns:xlink="http://www.w3.org/1999/xlink" x="0px" y="0px"
	 viewBox="0 0 113.3 98.1" style="enable-background:new 0 0 113.3 98.1;" xml:space="preserve">
<style type="text/css">
	.st0{fill:#181716;}
	.st1{fill:#FFFFFF;}
	.st2{fill:#FFFFFF;stroke:#F7931E;stroke-width:2;stroke-miterlimit:10;}
	.st3{fill:#E5007D;}
</style>
<g>
	<g>
		<g>
			<circle class="st1" cx="61.2" cy="59.4" r="1.7"/>
		</g>
	</g>
	<g>
		<g>
			<circle class="st1" cx="29.5" cy="38.6" r="0.6"/>
		</g>
	</g>
	<g>
		<path class="st1" d="M32.3,39.2h3.3H36c0.4,0,0.6-0.3,0.6-0.6c0-0.4-0.3-0.6-0.6-0.6h-0.4h-3.3c-0.4,0-0.6,0.3-0.6,0.6
			C31.6,38.9,31.9,39.2,32.3,39.2z"/>
		<path class="st1" d="M88.6,22.1H33.8c-1.7,0-3.1,1.4-3.1,3.1v10h-5.5c-1.9,0-3.5,1.6-3.5,3.5v37.6c0,1.9,1.6,3.5,3.5,3.5h18
			c1.9,0,3.5-1.6,3.5-3.5V64.6h8l-1.4,4.3h-1.8c-1.1,0-2.1,0.9-2.1,2.1v1.2c0,1.1,0.9,2.1,2.1,2.1h19.8c1.1,0,2.1-0.9,2.1-2.1V71
			c0-1.1-0.9-2.1-2.1-2.1h-1.8L68,64.6h0.2h20.4c1.7,0,3.1-1.4,3.1-3.1V25.2C91.7,23.5,90.3,22.1,88.6,22.1z M25.1,37.2h18
			c0.8,0,1.5,0.7,1.5,1.5v1.9H23.7v-1.9C23.7,37.8,24.3,37.2,25.1,37.2z M43.1,35.2h-6.5v-7h49.1v26.1H46.6V38.7
			C46.6,36.7,45,35.2,43.1,35.2z M44.6,42.6v29.7H23.7V42.6H44.6z M43.1,77.7h-18c-0.8,0-1.5-0.7-1.5-1.5v-1.9h20.9v1.9
			C44.6,77,43.9,77.7,43.1,77.7z M71.2,70.9C71.2,70.9,71.3,71,71.2,70.9l0.1,1.3c0,0,0,0.1-0.1,0.1H51.4c0,0-0.1,0-0.1-0.1V71
			c0,0,0-0.1,0.1-0.1h1.2l0,0H70l0,0H71.2z M67.2,68.9H55.4l1.4-4.3h9.1L67.2,68.9z M89.7,61.5c0,0.6-0.5,1.1-1.1,1.1H68.2H54.9
			h-8.3v-6.3h41.1V26.1H34.6v9h-2v-10c0-0.6,0.5-1.1,1.1-1.1h54.8c0.6,0,1.1,0.5,1.1,1.1V61.5z"/>
	</g>
	<g>
		<g>
			<circle class="st1" cx="34.1" cy="76" r="1.3"/>
		</g>
	</g>
</g>
</svg>
