<?xml version="1.0" encoding="utf-8"?>
<!-- Generator: Adobe Illustrator 21.1.0, SVG Export Plug-In . SVG Version: 6.00 Build 0)  -->
<svg version="1.1" id="Layer_1" xmlns="http://www.w3.org/2000/svg" xmlns:xlink="http://www.w3.org/1999/xlink" x="0px" y="0px"
	 viewBox="0 0 113.3 98.1" style="enable-background:new 0 0 113.3 98.1;" xml:space="preserve">
<style type="text/css">
	.st0{fill:#181716;}
	.st1{fill:#FFFFFF;}
	.st2{fill:#FFFFFF;stroke:#F7931E;stroke-width:2;stroke-miterlimit:10;}
	.st3{fill:#E5007D;}
</style>
<g>
	<path class="st1" d="M41.1,53.7c-0.6,0-1,0.4-1,1v5.6c0,0.6,0.4,1,1,1c0.6,0,1-0.4,1-1v-5.6C42.1,54.1,41.6,53.7,41.1,53.7z"/>
	<path class="st1" d="M45.4,53.7c-0.6,0-1,0.4-1,1v5.6c0,0.6,0.4,1,1,1c0.6,0,1-0.4,1-1v-5.6C46.4,54.1,46,53.7,45.4,53.7z"/>
	<path class="st1" d="M49.8,53.7c-0.6,0-1,0.4-1,1v5.6c0,0.6,0.4,1,1,1c0.6,0,1-0.4,1-1v-5.6C50.8,54.1,50.4,53.7,49.8,53.7z"/>
	<path class="st1" d="M41.1,64.3c-0.6,0-1,0.4-1,1v5.6c0,0.6,0.4,1,1,1c0.6,0,1-0.4,1-1v-5.6C42.1,64.8,41.6,64.3,41.1,64.3z"/>
	<path class="st1" d="M45.4,64.3c-0.6,0-1,0.4-1,1v5.6c0,0.6,0.4,1,1,1c0.6,0,1-0.4,1-1v-5.6C46.4,64.8,46,64.3,45.4,64.3z"/>
	<path class="st1" d="M49.8,64.3c-0.6,0-1,0.4-1,1v5.6c0,0.6,0.4,1,1,1c0.6,0,1-0.4,1-1v-5.6C50.8,64.8,50.4,64.3,49.8,64.3z"/>
	<path class="st1" d="M41.1,75c-0.6,0-1,0.4-1,1v5.6c0,0.6,0.4,1,1,1c0.6,0,1-0.4,1-1V76C42.1,75.4,41.6,75,41.1,75z"/>
	<path class="st1" d="M45.4,75c-0.6,0-1,0.4-1,1v5.6c0,0.6,0.4,1,1,1c0.6,0,1-0.4,1-1V76C46.4,75.4,46,75,45.4,75z"/>
	<path class="st1" d="M49.8,75c-0.6,0-1,0.4-1,1v5.6c0,0.6,0.4,1,1,1c0.6,0,1-0.4,1-1V76C50.8,75.4,50.4,75,49.8,75z"/>
	<path class="st1" d="M84.1,87.8h-1.6c0.1-6.6,0.3-41.1-5.6-60.4c0,0,0,0,0,0c-1.5-4.8-3.3-8.6-5.6-10.8L60.7,8.2
		C60.4,8,60,7.9,59.6,8.1c-0.3,0.2-0.6,0.5-0.6,0.9l-0.5,78.8H54v-39c0-0.6-0.4-1-1-1h-2.5v-4.4H53c0.6,0,1-0.4,1-1V28
		c0-0.4-0.2-0.7-0.6-0.9c-0.3-0.2-0.7-0.1-1,0.1L35.3,40.1c-0.2,0.2-0.4,0.4-0.4,0.7l-4.8,47h-1.2c-0.6,0-1,0.4-1,1c0,0.6,0.4,1,1,1
		H31h22h6.5h21.9h2.6c0.6,0,1-0.4,1-1C85.1,88.3,84.6,87.8,84.1,87.8z M69.7,87.8h-4c0-1.2,0-2.4,0-3.6h6.8
		C71.6,85.6,70.7,86.8,69.7,87.8z M79.8,61.4h-3.3c-1.1-5.9-3.1-11.5-6-15.8c1.9-7.3,4-12.4,5.2-15.1C78,39.2,79.2,50.8,79.8,61.4z
		 M69.8,48.2c2.1,3.7,3.7,8.3,4.6,13.1h-7.2C68,56.5,68.8,52.1,69.8,48.2z M65.9,44.7h-5.1L60.9,29h12.8
		C72,31.6,68.9,36.7,65.9,44.7z M60.8,46.7h4.4c-1.7,4.9-3.3,10.7-4.5,17.5L60.8,46.7z M69.8,40.7c-0.3,0.9-0.5,1.8-0.8,2.7
		c-1.4,4.8-2.8,11.2-3.9,18.9c0,0,0,0,0,0.1c0,0,0,0,0,0c-0.8,6.1-1.4,13.1-1.5,20.8c0,0,0,0,0,0c0,0,0,0,0,0c0,1.5,0,3,0,4.5h-3.1
		C60.8,66.1,65.5,50.5,69.8,40.7z M65.6,82.2c0.1-6.9,0.6-13.2,1.4-18.9h7.8c1,6.7,0.6,13.7-1.5,18.9H65.6z M76.8,63.4H80
		c0.4,7.4,0.5,14.2,0.5,18.9h-5.1C77.4,76.8,77.7,70,76.8,63.4z M69.9,18.1c1.9,1.8,3.5,5,4.8,8.9H61L61.1,11L69.9,18.1z M48.5,47.8
		h-2.4v-4.4h2.4V47.8z M32.1,87.8l4.7-46.4L52,30v4.7h-3.7c-0.6,0-1,0.4-1,1c0,0.6,0.4,1,1,1H52v0.9h-3.7c-0.6,0-1,0.4-1,1
		c0,0.6,0.4,1,1,1H52v1.8h-7c-0.6,0-1,0.4-1,1v6.4c0,0.6,0.4,1,1,1h7v38H32.1z M72.4,87.8c0.9-1.1,1.6-2.3,2.2-3.6h5.9
		c0,1.6,0,2.8,0,3.6H72.4z"/>
</g>
</svg>
