<?xml version="1.0" encoding="utf-8"?>
<!-- Generator: Adobe Illustrator 21.1.0, SVG Export Plug-In . SVG Version: 6.00 Build 0)  -->
<svg version="1.1" id="Layer_1" xmlns="http://www.w3.org/2000/svg" xmlns:xlink="http://www.w3.org/1999/xlink" x="0px" y="0px"
	 viewBox="0 0 113.3 98.1" style="enable-background:new 0 0 113.3 98.1;" xml:space="preserve">
<style type="text/css">
	.st0{fill:#181716;}
	.st1{fill:#FFFFFF;}
	.st2{fill:#FFFFFF;stroke:#F7931E;stroke-width:2;stroke-miterlimit:10;}
	.st3{fill:#E5007D;}
</style>
<g>
	<path class="st1" d="M66.5,45.8c-6.1,2.1-17.2,2.3-17.3,2.3c-0.6,0-1,0.5-1,1c0,0.6,0.5,1,1,1c0.4,0,9.2-0.2,15.6-1.8
		c-1.3,3.1-1.1,5.6-0.9,7.4c-1.7-0.5-4.3-1.3-6.5-1.8c-0.5-0.1-1.1,0.2-1.2,0.8c-0.1,0.5,0.2,1.1,0.8,1.2c3.3,0.7,7.8,2.2,7.9,2.2
		c0.1,0,0.2,0.1,0.3,0.1c0.2,0,0.5-0.1,0.7-0.2c0.3-0.2,0.4-0.6,0.3-0.9l-0.1-0.5c-0.4-2-0.9-5.1,1.5-9.3c0.2-0.4,0.2-0.8-0.1-1.1
		C67.3,45.8,66.9,45.7,66.5,45.8z"/>
	<path class="st1" d="M19,46c-3.3,0-6,2.8-6,6.2s2.7,6.2,6,6.2s6-2.8,6-6.2S22.3,46,19,46z M19,56.5c-2.2,0-4-1.9-4-4.2
		c0-2.3,1.8-4.2,4-4.2s4,1.9,4,4.2C23,54.6,21.2,56.5,19,56.5z"/>
	<path class="st1" d="M104.4,53.9c-0.2-1.7-1.3-2.5-1.4-2.6c-1.8-1.4-3.3-2.9-4.7-4.3c-4.2-4.1-7.9-7.7-15-7.3
		c-3,0.2-6.1-0.3-10.1-1.6c-1.1-0.3-2.2-0.7-3.3-1.1c-6-2-12.2-4.1-19-3.4c-7,0.8-13.9,3.2-20.6,5.5c-2.3,0.8-4.7,1.6-7.1,2.4
		c-0.7,0.2-1.7,0.3-2.7,0.4c-0.6,0.1-1.2,0.1-1.7,0.2c-0.1,0-0.2,0-0.2,0.1c-3.8,0.3-7.2,2.5-8.7,5.9c-1.5,3.4-1.3,7.1,0.7,10
		c1.9,2.8,5.1,4.4,8.7,4.3c2-0.1,3.9-0.7,5.7-1.2c1.1-0.3,2.1-0.6,3.2-0.9c3.7-0.8,6.6-1.2,9.3-1.3c4.8-0.3,10,0,16.5,0.8
		c5.3,0.7,7.2,1,12.3,2.4c0.6,0.2,1.2,0.4,1.8,0.6c2.7,0.9,5.8,1.9,10,1.9c0,0,0,0,0.1,0c4.2,0,8.5-1.2,12.7-2.3
		c3.4-0.9,6.8-1.9,10.2-2.1c0.3,0,0.6-0.2,0.8-0.5C104.6,55.1,104.5,54.2,104.4,53.9z M97.6,53.3c0.3,0.1,0.7,0.1,1,0.1
		c1.3,0,2.3-0.4,2.9-0.8c0.1,0.1,0.2,0.2,0.3,0.3c0,0,0.5,0.4,0.6,1.2c0,0.2-0.2,0.5-0.4,1c-2.4-0.3-4.4-1-4.5-1.5
		C97.5,53.6,97.5,53.5,97.6,53.3z M83.4,41.6c6.3-0.4,9.5,2.8,13.5,6.8c0.9,0.9,1.9,1.8,2.9,2.8c-0.5,0.2-1.3,0.3-2.3,0.1
		c-1.5-0.7-3.4-2.1-5.4-3.5c-2.2-1.6-4.6-3.3-6.7-4.3c-1.6-0.7-3.3-1.4-5.2-1.8C81.4,41.7,82.4,41.7,83.4,41.6z M100.3,58.3
		c-3.3,0.3-6.7,1.3-10,2.2c-4,1.1-8.2,2.2-12.2,2.3c-3.9,0-6.9-0.9-9.5-1.8c-0.6-0.2-1.2-0.4-1.8-0.6c-5.2-1.5-7.3-1.8-12.6-2.5
		c-4.9-0.6-9-1-12.9-1c-1.3,0-2.6,0-3.9,0.1c-2.9,0.2-5.8,0.6-9.6,1.4c-1.1,0.2-2.3,0.6-3.3,0.9c-1.8,0.5-3.5,1.1-5.2,1.1
		c-2.9,0.1-5.4-1.1-6.9-3.4c-1.6-2.3-1.8-5.4-0.5-8.1c1.9-4.3,6.7-5.4,10.2-4.5c3.6,0.9,5.7,3,7.4,4.8c1.1,1.2,2,2.1,3.1,2.4
		c0.5,0.1,1.1-0.2,1.2-0.7c0.1-0.5-0.2-1.1-0.7-1.2c-0.6-0.1-1.4-1-2.2-1.8c-1.5-1.5-3.3-3.4-6.2-4.6c2.2-0.7,4.4-1.5,6.5-2.2
		c6.6-2.3,13.3-4.6,20.1-5.4c6.3-0.7,12.1,1.2,18.2,3.3c1.1,0.4,2.2,0.7,3.3,1.1c1.7,0.6,3.3,1,4.8,1.3c-1.9-0.1-3.7,0.1-5.6,0.3
		l-4.6,0.5c-0.1,0-0.2,0-0.3,0c-8.4-5.5-20.3-5.5-32.7,0.1L34,42.1c-1.6,0.7-2.2,0.8-2.4,0.7c-0.5-0.2-1,0-1.2,0.5
		c-0.2,0.5-0.1,1,0.4,1.3c0.6,0.4,1.2,0.7,1.9,0.9c2.5,0.7,6.6,0.8,9.7,0.6c3.2-0.2,6.7-0.4,10.1-0.7c5-0.4,10.1-1,15-1.5l4.6-0.5
		c2.2-0.2,4.4-0.5,6.6-0.2c2.1,0.3,4.2,1.1,6,2c2,0.9,4.2,2.5,6.4,4.1c1.7,1.2,3.3,2.4,4.7,3.2c-0.3,0.7-0.3,1.2-0.2,1.6
		c0.6,1.7,3.6,2.5,5.5,2.8C100.8,57.4,100.6,57.8,100.3,58.3z M63.6,42.3c-3.8,0.4-7.6,0.8-11.3,1.1c-3.4,0.3-6.8,0.5-10,0.7
		c-2.8,0.2-5.5,0.1-7.5-0.2c0,0,0.1,0,0.1,0l0.2-0.1C40.3,41.5,52.9,37,63.6,42.3z"/>
	<path class="st1" d="M77.4,45c-4.5,0-8.2,3.7-8.2,8.2s3.7,8.2,8.2,8.2c4.5,0,8.2-3.7,8.2-8.2S82,45,77.4,45z M77.4,59.4
		c-3.4,0-6.2-2.8-6.2-6.2c0-3.4,2.8-6.2,6.2-6.2c3.4,0,6.2,2.8,6.2,6.2C83.7,56.7,80.9,59.4,77.4,59.4z"/>
</g>
</svg>
