<?xml version="1.0" encoding="utf-8"?>
<!-- Generator: Adobe Illustrator 21.1.0, SVG Export Plug-In . SVG Version: 6.00 Build 0)  -->
<svg version="1.1" id="Layer_1" xmlns="http://www.w3.org/2000/svg" xmlns:xlink="http://www.w3.org/1999/xlink" x="0px" y="0px"
	 viewBox="0 0 113.3 98.1" style="enable-background:new 0 0 113.3 98.1;" xml:space="preserve">
<style type="text/css">
	.st0{fill:#181716;}
	.st1{fill:#FFFFFF;}
	.st2{fill:#FFFFFF;stroke:#F7931E;stroke-width:2;stroke-miterlimit:10;}
	.st3{fill:#E5007D;}
</style>
<g>
	<path class="st1" d="M84.7,36c-0.2-0.3-0.5-0.5-0.9-0.4l-42.1,2.7c-0.5-0.6-1-1.2-1.5-1.8c-2.1-2.4-5.8-6.6-10.4-11.4
		c-0.2-0.2-0.5-0.3-0.7-0.3h-9.9c-0.6,0-1,0.4-1,1c0,0.6,0.4,1,1,1h9.4c4,4.3,7.3,8,9.4,10.4c0,0.1,0.1,0.1,0.1,0.2
		c0.2,0.2,0.3,0.4,0.5,0.5c1.1,1.2,1.7,2,1.8,2.1c4.3,5.5,8.1,13.4,8.8,16.5c-0.2,4.5-5.8,6.4-5.9,6.5c-0.5,0.2-0.8,0.6-0.7,1.1
		c0.1,0.5,0.5,0.8,1,0.8h27.1c0.6,0,1-0.4,1-1c0-0.6-0.4-1-1-1H47.7c1.4-1.1,2.8-2.6,3.4-4.7c0,0,0,0,0,0c0,0,0.1,0,0.1,0
		c0,0,0,0,0.1,0c0.1,0,0.2,0,0.4,0c4.1,0,22.5-0.3,23.3-0.4c0.4,0,0.7-0.2,0.9-0.6c0,0,2.3-5,4.5-10.1C85.1,36.5,85.1,36.5,84.7,36z
		 M51.2,39.7c1.2,1.3,2.9,3.6,4.3,5.9c-2.1,0.9-3.8,2-4.9,3.3c-0.5,0.5-0.9,1.1-1.2,1.8c-1.5-3.3-3.7-7.2-6.1-10.5L51.2,39.7z
		 M79.5,44c-3,0.5-14.8,2.7-16.4,7.8c-0.4,1.4-0.1,2.8,0.9,4.2c-1.9,0-3.9,0.1-5.8,0.1c0.4-0.4,0.8-0.9,1-1.5c1-2.3,0.2-5.2-1.1-8
		c7.4-2.8,18.1-4,22-4.1C80,42.9,79.8,43.5,79.5,44z M57.6,53.8c-0.7,1.5-2.6,2.3-5.8,2.4c-1.2-1.8-1.4-3.4-0.6-4.9
		c0.9-1.5,2.8-2.8,5.2-3.9C57.6,49.8,58.3,52.1,57.6,53.8z M74.2,55.8c-1.2,0-4.1,0.1-7.5,0.1c-1.4-1.3-2-2.5-1.7-3.6
		c0.9-2.9,8.1-5.2,13.5-6.2C77.1,49.4,75.6,52.9,74.2,55.8z M81.1,40.5c-3.8,0-15.6,1.2-23.8,4.3c-1.2-2.1-2.7-4-3.7-5.3l28.7-1.9
		C82.1,38.4,81.6,39.4,81.1,40.5z"/>
	<path class="st1" d="M46.4,67c-2.8,0-5,2.3-5,5c0,2.8,2.3,5,5,5c2.8,0,5-2.3,5-5C51.4,69.2,49.2,67,46.4,67z M46.4,75
		c-1.7,0-3-1.4-3-3c0-1.7,1.4-3,3-3c1.7,0,3,1.4,3,3C49.4,73.7,48.1,75,46.4,75z"/>
	<path class="st1" d="M68.2,67c-2.8,0-5,2.3-5,5c0,2.8,2.3,5,5,5c2.8,0,5-2.3,5-5C73.2,69.2,71,67,68.2,67z M68.2,75
		c-1.7,0-3-1.4-3-3c0-1.7,1.4-3,3-3c1.7,0,3,1.4,3,3C71.2,73.7,69.9,75,68.2,75z"/>
</g>
</svg>
