<?xml version="1.0" encoding="utf-8"?>
<!-- Generator: Adobe Illustrator 21.1.0, SVG Export Plug-In . SVG Version: 6.00 Build 0)  -->
<svg version="1.1" id="Layer_1" xmlns="http://www.w3.org/2000/svg" xmlns:xlink="http://www.w3.org/1999/xlink" x="0px" y="0px"
	 viewBox="0 0 24 24" style="enable-background:new 0 0 24 24;" xml:space="preserve">
<style type="text/css">
	.st0{fill:#FFFFFF;}
</style>
<path class="st0" d="M12,0C5.4,0,0,5.4,0,12s5.4,12,12,12s12-5.4,12-12S18.6,0,12,0z M18.3,16.2h-1.9c-1.1,0-1.2-0.6-2.1-1.5
	c-0.8-0.8-1.2-0.2-1.2,0.9c0,0.3-0.1,0.5-0.5,0.5c-1.1,0-2.7,0.2-4.3-1.6C6.7,12.8,5,9.2,5,8.9c0-0.2,0.2-0.3,0.5-0.3h1.9
	c0.5,0,0.5,0.2,0.7,0.6c0.6,1.3,2,4,2.4,2.5c0.2-0.9,0.3-2.8-0.6-3C9.3,8.6,10.2,8,11.5,8c0.3,0,0.7,0,1.1,0.1
	c0.7,0.2,0.7,0.5,0.7,0.9c0,1.7-0.2,2.8,0.2,3.1c0.4,0.3,1.5-1.5,2.1-2.9c0.2-0.4,0.2-0.6,0.6-0.6h2.3c1.2,0-0.2,1.7-1.2,3.1
	c-0.8,1.1-0.8,1.1,0.2,2c0.7,0.7,1.5,1.5,1.5,2C19,16,18.8,16.2,18.3,16.2z"/>
</svg>
