<?xml version="1.0" encoding="utf-8"?>
<!-- Generator: Adobe Illustrator 21.1.0, SVG Export Plug-In . SVG Version: 6.00 Build 0)  -->
<svg version="1.1" id="Layer_1" xmlns="http://www.w3.org/2000/svg" xmlns:xlink="http://www.w3.org/1999/xlink" x="0px" y="0px"
	 viewBox="0 0 41.9 44.9" style="enable-background:new 0 0 41.9 44.9;" xml:space="preserve">
<style type="text/css">
	.st0{fill:#FFFFFF;}
</style>
<path class="st0" d="M41,31.9c-0.3-2.3-1.9-4.2-4.1-5l-8.8-3.2L27,21.6c0.7-1.1,1.3-2.5,1.7-3.9h0.1h0.1c0.8,0,1.4-0.7,1.7-3.6
	c0.3-2.8-0.1-3.3-0.3-3.5l-0.3-0.4h-0.3V8.9l0,0c0-2.5-0.3-4.7-1.8-6.3c-1.4-1.4-3.6-2.1-6.8-2.1c-3.3,0-5.5,0.7-6.9,2.2
	c-1.4,1.6-1.7,3.7-1.7,6.2l0,0v1.4L12,10.4l-0.3,0.3c-0.1,0.2-0.6,0.7-0.3,3.5c0.3,2.9,0.9,3.6,1.7,3.6h0.1h0.2
	c0.4,1.4,0.9,2.7,1.5,3.8l-1.1,2.2L5,27c-2.2,0.8-3.7,2.7-4.1,5l-0.2,1.2l6,10.4h28.5l5.9-10.2L41,31.9z M27.5,11.6
	c0,0.4,0,0.9-0.1,1.3c0,0.6-0.1,1.2-0.2,1.8c-4,1-8.3,1-12.3,0c-0.1-0.6-0.2-1.2-0.2-1.9l-0.1-0.7c0-0.3,0-0.5-0.1-0.8
	c4.3,1,8.7,1,12.9,0C27.5,11.5,27.5,11.6,27.5,11.6z M21,17.6c1.9,0,3.9-0.2,5.8-0.6c-1.1,4.1-3.6,6.7-5.7,6.7
	c-2.5,0-4.6-2.6-5.7-6.7C17.2,17.4,19.1,17.6,21,17.6z M15.6,4c1-1.1,2.8-1.6,5.4-1.6c2.6,0,4.4,0.5,5.3,1.5
	c1.1,1.2,1.3,3.1,1.2,5.5c-4.3,1.1-8.8,1.1-13.1,0C14.4,7.1,14.5,5.2,15.6,4z M34.2,41.5H7.9l-5.1-8.8l0.1-0.5
	c0.2-1.6,1.3-2.9,2.8-3.4l9.6-3.5l1-2c1.3,1.6,3,2.4,4.8,2.4c1.7,0,3.3-0.9,4.6-2.4l1,1.9l9.6,3.5c1.5,0.5,2.5,1.9,2.8,3.5l0.1,0.7
	L34.2,41.5z"/>
</svg>
